<?xml version="1.0" encoding="utf-8"?>
<!-- Generator: Adobe Illustrator 23.0.4, SVG Export Plug-In . SVG Version: 6.00 Build 0)  -->
<svg version="1.1" id="Layer_1" xmlns="http://www.w3.org/2000/svg" xmlns:xlink="http://www.w3.org/1999/xlink" x="0px" y="0px"
	 viewBox="0 0 107 27.9" style="enable-background:new 0 0 107 27.9;" xml:space="preserve">
<style type="text/css">
	.st0{opacity:0.5;fill:#FFFFFF;enable-background:new    ;}
	.st1{fill:#FFFFFF;}
</style>
<title>trains-logo-solid-italic</title>
<path class="st0" d="M6.7,20.6c0,0.2-0.1,0.4-0.1,0.6c0,0.4,0.1,0.8,0.4,1.1c0.3,0.3,0.8,0.4,1.2,0.4c0.7,0,1.4-0.2,2-0.5l0.8,4.5
	C9.6,27.6,8,28,6.3,27.9C4.6,28,3,27.5,1.7,26.4c-1.1-1-1.8-2.5-1.7-4c0-0.6,0.1-1.2,0.2-1.8L3.3,4.8h6.5l-1,4.8H13l-1,4.9H7.9
	L6.7,20.6z"/>
<path class="st0" d="M29.5,8.7l-1.1,5.9c-0.5-0.1-1-0.1-1.5-0.1c-1.3-0.1-2.5,0.3-3.5,1.1c-1,0.9-1.6,2-1.8,3.3l-1.8,8.8h-6.5L17,9
	h6.2l-0.4,2.1C24.4,9.5,26.6,8.7,29.5,8.7z"/>
<path class="st1" d="M52.4,22.6l-0.7,4.8c-1,0.3-2.1,0.5-3.2,0.5c-1.2,0-2.5-0.2-3.6-0.8c-0.9-0.5-1.6-1.3-2-2.3
	c-1.5,2-3.8,3.2-6.3,3.1c-1.3,0-2.7-0.3-3.8-1c-1.2-0.7-2.2-1.7-2.9-2.9c-0.8-1.4-1.1-2.9-1.1-4.5c0-1.9,0.4-3.8,1.4-5.5
	c0.9-1.6,2.1-2.9,3.7-3.9c1.5-0.9,3.3-1.4,5.1-1.4c2.7,0,4.6,0.8,5.7,2.5L45.1,9h6.5l-2.3,11.5c0,0.2-0.1,0.5-0.1,0.7
	c0,1.1,0.6,1.6,1.7,1.6C51.5,22.9,52,22.8,52.4,22.6z M42.2,21.2c0.9-1.1,1.3-2.4,1.2-3.7c0.1-1-0.3-1.9-0.9-2.6
	c-0.7-0.7-1.6-1-2.6-1c-1.2,0-2.4,0.5-3.2,1.4c-0.9,1.1-1.3,2.4-1.2,3.8c-0.2,1.8,1.1,3.4,2.9,3.6c0.2,0,0.4,0,0.6,0
	C40.2,22.7,41.4,22.2,42.2,21.2z"/>
<path class="st1" d="M57.8,9h6.5l-3.7,18.6h-6.5L57.8,9z M59.2,6c-0.6-0.6-0.9-1.4-0.9-2.3c0-1,0.3-1.9,1-2.7C60,0.4,60.9,0,61.9,0
	c0.9,0,1.7,0.3,2.4,0.9c0.6,0.6,0.9,1.4,0.9,2.2c0,1-0.3,2-1,2.8c-0.7,0.7-1.7,1.1-2.7,1C60.6,7,59.8,6.6,59.2,6z"/>
<path class="st0" d="M85,10.3c1.3,1.2,1.9,2.9,1.8,4.7c0,0.8-0.1,1.5-0.2,2.3l-2,10.3H78l1.9-9.7c0.1-0.4,0.1-0.8,0.1-1.2
	c0-1.6-0.9-2.5-2.6-2.5c-1,0-2.1,0.3-2.8,1.1c-0.8,0.9-1.4,2-1.5,3.1l-1.9,9.2h-6.5L68.5,9h6.2l-0.4,1.9C75,10.2,76,9.6,77,9.2
	c1-0.4,2.1-0.6,3.1-0.6C81.9,8.6,83.6,9.2,85,10.3z"/>
<path class="st0" d="M91.3,27.4c-1.2-0.2-2.4-0.7-3.4-1.3l2.4-4.6c0.9,0.6,1.9,1,3,1.2c1.1,0.3,2.3,0.5,3.4,0.5c2,0,3-0.4,3-1.3
	c0-0.4-0.2-0.6-0.7-0.8c-0.7-0.2-1.5-0.4-2.2-0.5c-1.1-0.2-2.3-0.5-3.4-0.8c-0.9-0.3-1.7-0.8-2.3-1.5c-0.7-0.8-1.1-1.8-1-2.9
	c-0.1-2,1-4,2.8-5c2.2-1.3,4.6-1.9,7.2-1.8c1.3,0,2.6,0.1,3.8,0.4c1.1,0.2,2.2,0.6,3.2,1.1l-2.3,4.6c-1.7-1-3.6-1.5-5.5-1.4
	c-0.8,0-1.5,0.1-2.2,0.4c-0.4,0.2-0.7,0.6-0.7,1c0,0.4,0.2,0.6,0.7,0.8c0.8,0.2,1.5,0.4,2.3,0.6c1.1,0.2,2.2,0.4,3.3,0.8
	c0.9,0.3,1.7,0.8,2.3,1.5c0.7,0.8,1.1,1.8,1,2.8c0.1,2.1-1,4-2.8,5c-2.2,1.2-4.6,1.9-7.1,1.8C94.4,27.9,92.8,27.7,91.3,27.4z"/>
<path class="st1" d="M54.9,6H15.3c-0.6,0-1-0.4-1-1s0.4-1,1-1h39.6c0.6,0,1,0.4,1,1S55.5,6,54.9,6z"/>
<path class="st1" d="M54.9,2H37.9c-0.6,0-1-0.4-1-1s0.4-1,1-1h17.1c0.6,0,1,0.4,1,1S55.5,2,54.9,2z"/>
<path class="st1" d="M33.9,2h-3.4c-0.6,0-1-0.4-1-1s0.4-1,1-1h3.4c0.6,0,1,0.4,1,1S34.4,2,33.9,2z"/>
<path class="st1" d="M26.3,2H10.6c-0.6,0-1-0.4-1-1s0.4-1,1-1h15.7c0.6,0,1,0.4,1,1S26.8,2,26.3,2z"/>
</svg>
