<svg xmlns="http://www.w3.org/2000/svg" viewBox="0 0 106.99 27.89"><title>trains-logo-solid-italic</title><path d="M6.69,20.65a4.92,4.92,0,0,0-.07.65,1.46,1.46,0,0,0,.43,1.15,1.76,1.76,0,0,0,1.25.4,4.26,4.26,0,0,0,2-.55l.82,4.49a9.66,9.66,0,0,1-4.84,1.1,6.77,6.77,0,0,1-4.56-1.44,5,5,0,0,1-1.68-4,8.17,8.17,0,0,1,.17-1.75L3.33,4.84H9.85l-1,4.83h4.19l-1,4.88H7.92Z" style="fill:#fff;opacity:0.5"/><path d="M29.54,8.68,28.4,14.55a12.44,12.44,0,0,0-1.47-.11,5.51,5.51,0,0,0-3.52,1.05,5.33,5.33,0,0,0-1.76,3.31l-1.79,8.78H13.34L17.05,9h6.17l-.41,2.06Q25.15,8.68,29.54,8.68Z" style="fill:#fff;opacity:0.5"/><path d="M52.42,22.57l-.69,4.84a10.15,10.15,0,0,1-3.16.48A7,7,0,0,1,45,27.07a4.42,4.42,0,0,1-2-2.27,7.46,7.46,0,0,1-6.28,3.09,7.77,7.77,0,0,1-3.85-1A7.52,7.52,0,0,1,30,23.94a8.88,8.88,0,0,1-1.1-4.52,11.18,11.18,0,0,1,1.35-5.48,10.22,10.22,0,0,1,3.67-3.85A9.56,9.56,0,0,1,39,8.68q4.05,0,5.7,2.54L45.14,9h6.52L49.33,20.55a4.92,4.92,0,0,0-.07.68c0,1.08.57,1.62,1.72,1.62A3.16,3.16,0,0,0,52.42,22.57ZM42.23,21.2a5.56,5.56,0,0,0,1.23-3.74,3.56,3.56,0,0,0-.94-2.61,3.46,3.46,0,0,0-2.59-1,4,4,0,0,0-3.19,1.44,5.62,5.62,0,0,0-1.24,3.78A3.27,3.27,0,0,0,39,22.64,4,4,0,0,0,42.23,21.2Z" style="fill:#fff"/><path d="M57.77,9h6.48l-3.7,18.59H54.06Zm1.39-3a3.18,3.18,0,0,1-.89-2.29,3.7,3.7,0,0,1,1-2.66,3.44,3.44,0,0,1,2.62-1,3.2,3.2,0,0,1,2.37.88,3,3,0,0,1,.89,2.24,3.85,3.85,0,0,1-1,2.75A3.45,3.45,0,0,1,61.5,6.93,3.08,3.08,0,0,1,59.16,6Z" style="fill:#fff"/><path d="M85,10.31A6,6,0,0,1,86.82,15a11.38,11.38,0,0,1-.24,2.3l-2,10.29H78l1.92-9.67a5.48,5.48,0,0,0,.14-1.24c0-1.64-.86-2.47-2.58-2.47a3.9,3.9,0,0,0-2.81,1.05,5.88,5.88,0,0,0-1.54,3.14l-1.86,9.19H64.77L68.47,9h6.18l-.38,1.92A7.6,7.6,0,0,1,77,9.23a8.92,8.92,0,0,1,3.12-.55A7.08,7.08,0,0,1,85,10.31Z" style="fill:#fff;opacity:0.5"/><path d="M91.3,27.38a11.42,11.42,0,0,1-3.45-1.31l2.37-4.56a11,11,0,0,0,3,1.25,13.33,13.33,0,0,0,3.43.46c2,0,3-.44,3-1.33,0-.37-.23-.64-.7-.81a13.1,13.1,0,0,0-2.25-.5,28,28,0,0,1-3.38-.8A5.65,5.65,0,0,1,91,18.32a4,4,0,0,1-1-2.88,5.58,5.58,0,0,1,2.77-5,13,13,0,0,1,7.15-1.77,18.59,18.59,0,0,1,3.84.39A14,14,0,0,1,107,10.15l-2.29,4.57a10.5,10.5,0,0,0-5.53-1.41,5,5,0,0,0-2.24.39,1.16,1.16,0,0,0-.74,1c0,.36.23.63.7.8a17.21,17.21,0,0,0,2.32.57,22.52,22.52,0,0,1,3.31.79,5.74,5.74,0,0,1,2.3,1.47,3.94,3.94,0,0,1,1,2.82,5.55,5.55,0,0,1-2.77,5,13.12,13.12,0,0,1-7.11,1.75A20.48,20.48,0,0,1,91.3,27.38Z" style="fill:#fff;opacity:0.5"/></svg>