<svg xmlns="http://www.w3.org/2000/svg" viewBox="0 0 730.07 190.95"><title>trains-wht-svg</title><path d="M45.43,147.41a36.74,36.74,0,0,0-.48,4.44,10,10,0,0,0,2.94,7.85,12.06,12.06,0,0,0,8.53,2.73,29.17,29.17,0,0,0,13.65-3.75l5.6,30.64a65.89,65.89,0,0,1-33,7.51A46.21,46.21,0,0,1,11.51,187,34.12,34.12,0,0,1,0,159.7,56.44,56.44,0,0,1,1.2,147.75L22.5,39.51H67l-6.82,33H88.77L82,105.78H53.83Z" transform="translate(0 -6.03)" style="fill:#f2f2f2;opacity:0.5;isolation:isolate"/><path d="M201.39,65.72l-7.78,40.06a84.3,84.3,0,0,0-10-.75,37.58,37.58,0,0,0-24,7.17,36.3,36.3,0,0,0-12,22.59l-12.22,59.92H90.82L116.14,67.9h42.11L155.46,82Q171.42,65.72,201.39,65.72Z" transform="translate(0 -6.03)" style="fill:#f2f2f2;opacity:0.5;isolation:isolate"/><path d="M579.92,76.84a41,41,0,0,1,12.42,32,77.35,77.35,0,0,1-1.64,15.7l-13.65,70.23H532.14l13.11-66a37,37,0,0,0,1-8.46c0-11.2-5.87-16.86-17.61-16.86a26.64,26.64,0,0,0-19.18,7.17,40.15,40.15,0,0,0-10.51,21.43l-12.69,62.72H441.84L467.1,67.9h42.18L506.68,81a51.88,51.88,0,0,1,18.64-11.53,60.87,60.87,0,0,1,21.29-3.75A48.34,48.34,0,0,1,579.92,76.84Z" transform="translate(0 -6.03)" style="fill:#f2f2f2;opacity:0.5;isolation:isolate"/><path d="M622.92,193.35a78.2,78.2,0,0,1-23.55-8.94l16.18-31.13A74.59,74.59,0,0,0,636,161.81,90.81,90.81,0,0,0,659.43,165c13.65,0,20.48-3,20.48-9.07,0-2.53-1.57-4.37-4.78-5.53a88.74,88.74,0,0,0-15.36-3.41,194.24,194.24,0,0,1-23.07-5.46,38.7,38.7,0,0,1-15.83-10A27.3,27.3,0,0,1,614,111.85,38.1,38.1,0,0,1,633,77.73a88.64,88.64,0,0,1,48.8-12.08A126.09,126.09,0,0,1,708,68.31a95.33,95.33,0,0,1,22.11,7.44l-15.63,31.19a71.63,71.63,0,0,0-37.74-9.62A34.13,34.13,0,0,0,661.41,100a7.92,7.92,0,0,0-5,6.82c0,2.46,1.57,4.3,4.78,5.46A115,115,0,0,0,677,116.15a153.41,153.41,0,0,1,22.59,5.4,39.07,39.07,0,0,1,15.7,10,26.9,26.9,0,0,1,6.83,19.25A37.87,37.87,0,0,1,703.18,185a89.54,89.54,0,0,1-48.53,12A140,140,0,0,1,622.92,193.35Z" transform="translate(0 -6.03)" style="fill:#f2f2f2;opacity:0.5;isolation:isolate"/><path d="M357.55,160.52l-4.71,33a69.22,69.22,0,0,1-21.57,3.28,47.72,47.72,0,0,1-24.36-5.6,30.14,30.14,0,0,1-13.65-15.49,50.94,50.94,0,0,1-42.87,21.09A53,53,0,0,1,224.12,190a51.3,51.3,0,0,1-19.59-20.13A60.62,60.62,0,0,1,197,139a76.26,76.26,0,0,1,9.22-37.4,69.67,69.67,0,0,1,25-26.28A65.19,65.19,0,0,1,266,65.72q27.63,0,38.9,17.33l3-15.15h44.5l-15.9,78.83a33,33,0,0,0-.48,4.64c0,7.37,3.89,11.06,11.74,11.06A21.6,21.6,0,0,0,357.55,160.52ZM288,151.17a37.94,37.94,0,0,0,8.4-25.53A24.27,24.27,0,0,0,290,107.83,23.6,23.6,0,0,0,272.3,101a27.29,27.29,0,0,0-21.77,9.83,38.37,38.37,0,0,0-8.46,25.8A22.32,22.32,0,0,0,262.18,161a22.71,22.71,0,0,0,3.78,0A27.33,27.33,0,0,0,288,151.17Z" transform="translate(0 -6.03)" style="fill:#f2f2f2"/><path d="M394.07,67.9h44.22L413,194.78h-44.3Zm9.48-20.48a21.71,21.71,0,0,1-6.07-15.63,25.25,25.25,0,0,1,6.82-18.15,23.53,23.53,0,0,1,17.89-6.83,21.85,21.85,0,0,1,16.17,6,20.46,20.46,0,0,1,6.08,15.29,26.3,26.3,0,0,1-6.83,18.77,23.56,23.56,0,0,1-18.09,6.89A21,21,0,0,1,403.55,47.42Z" transform="translate(0 -6.03)" style="fill:#f2f2f2"/><path d="M374.75,47.42H104.4a6.83,6.83,0,0,1,0-13.65H374.75a6.83,6.83,0,1,1,0,13.65Z" transform="translate(0 -6.03)" style="fill:#f2f2f2"/><path d="M374.75,20.12H258.24a6.83,6.83,0,0,1,0-13.65H374.75a6.83,6.83,0,1,1,0,13.65Z" transform="translate(0 -6.03)" style="fill:#f2f2f2"/><path d="M231,20.12H207.87a6.83,6.83,0,0,1,0-13.65H231a6.83,6.83,0,1,1,0,13.65Z" transform="translate(0 -6.03)" style="fill:#f2f2f2"/><path d="M179.21,20.12H71.91a6.83,6.83,0,0,1,0-13.65h107.3a6.83,6.83,0,0,1,0,13.65Z" transform="translate(0 -6.03)" style="fill:#f2f2f2"/><g style="opacity:0.5"><path d="M629.18,19.47a13.58,13.58,0,0,1,5.33,5.3,15.74,15.74,0,0,1,1.92,7.87,15.9,15.9,0,0,1-1.92,7.89,13.59,13.59,0,0,1-5.33,5.33,15.58,15.58,0,0,1-7.7,1.89,13.92,13.92,0,0,1-6-1.28,11.55,11.55,0,0,1-4.52-3.74v4.69h-5.13V6h5.35V22.32a11.31,11.31,0,0,1,4.47-3.55,14.11,14.11,0,0,1,5.85-1.2A15.58,15.58,0,0,1,629.18,19.47Zm-3,22.29a9.43,9.43,0,0,0,3.57-3.68A11,11,0,0,0,631,32.64a11,11,0,0,0-1.31-5.44,9.25,9.25,0,0,0-3.57-3.66,10.76,10.76,0,0,0-10.18,0,9.12,9.12,0,0,0-3.57,3.66,11.18,11.18,0,0,0-1.28,5.44,11.21,11.21,0,0,0,1.28,5.44A9.3,9.3,0,0,0,616,41.76a10.54,10.54,0,0,0,10.18,0Z" transform="translate(0 -6.03)" style="fill:#fff"/><path d="M665.72,39.5l2.9,3.46a12.49,12.49,0,0,1-4.93,3.57,18.9,18.9,0,0,1-15-.7,13.73,13.73,0,0,1-5.61-5.38,15.45,15.45,0,0,1-2-7.81A15.72,15.72,0,0,1,643,24.88a13.84,13.84,0,0,1,5.3-5.38,15.8,15.8,0,0,1,14.93-.11,13.72,13.72,0,0,1,5.24,5.1,15,15,0,0,1,2,7.59L647,36.65a9.1,9.1,0,0,0,3.77,4.74,11.71,11.71,0,0,0,6.39,1.68A11,11,0,0,0,665.72,39.5ZM651,23.38A8.79,8.79,0,0,0,647.54,27a11.34,11.34,0,0,0-1.23,5.39v.56l18.91-3.58A9.05,9.05,0,0,0,662,24.1a9.37,9.37,0,0,0-6-2A9.69,9.69,0,0,0,651,23.38Z" transform="translate(0 -6.03)" style="fill:#fff"/><path d="M693.56,45.69a7.94,7.94,0,0,1-2.9,1.53,11.87,11.87,0,0,1-3.57.53,9.48,9.48,0,0,1-6.92-2.39q-2.45-2.4-2.45-6.87V11.38h5.35v6.47h8.48v4.41h-8.48v16a5.18,5.18,0,0,0,1.2,3.68,4.46,4.46,0,0,0,3.43,1.29,6.48,6.48,0,0,0,4.19-1.4Z" transform="translate(0 -6.03)" style="fill:#fff"/><path d="M726.92,17.85V47.42h-5.13V42.73a11.55,11.55,0,0,1-4.52,3.74,13.92,13.92,0,0,1-6,1.28,15.58,15.58,0,0,1-7.7-1.89,13.59,13.59,0,0,1-5.33-5.33,15.9,15.9,0,0,1-1.93-7.89,15.74,15.74,0,0,1,1.93-7.87,13.58,13.58,0,0,1,5.33-5.3,15.58,15.58,0,0,1,7.7-1.9,14.11,14.11,0,0,1,5.85,1.2,11.31,11.31,0,0,1,4.47,3.55V17.85ZM716.77,41.76a9.3,9.3,0,0,0,3.57-3.68,11.21,11.21,0,0,0,1.28-5.44,11.18,11.18,0,0,0-1.28-5.44,9.12,9.12,0,0,0-3.57-3.66,10.76,10.76,0,0,0-10.18,0A9.25,9.25,0,0,0,703,27.2a11,11,0,0,0-1.31,5.44A11,11,0,0,0,703,38.08a9.43,9.43,0,0,0,3.57,3.68,10.54,10.54,0,0,0,10.18,0Z" transform="translate(0 -6.03)" style="fill:#fff"/></g></svg>